<svg width="18" height="18" viewBox="0 0 18 18" fill="none" xmlns="http://www.w3.org/2000/svg">
<path d="M6.11367 13.9711C6.11367 14.0414 6.03281 14.0977 5.93086 14.0977C5.81484 14.1082 5.73398 14.052 5.73398 13.9711C5.73398 13.9008 5.81484 13.8445 5.9168 13.8445C6.02227 13.834 6.11367 13.8902 6.11367 13.9711ZM5.02031 13.8129C4.9957 13.8832 5.06602 13.9641 5.17148 13.9852C5.26289 14.0203 5.36836 13.9852 5.38945 13.9148C5.41055 13.8445 5.34375 13.7637 5.23828 13.732C5.14687 13.7074 5.04492 13.7426 5.02031 13.8129ZM6.57422 13.7531C6.47227 13.7777 6.40195 13.8445 6.4125 13.9254C6.42305 13.9957 6.51445 14.0414 6.61992 14.0168C6.72188 13.9922 6.79219 13.9254 6.78164 13.8551C6.77109 13.7883 6.67617 13.7426 6.57422 13.7531ZM8.8875 0.28125C4.01133 0.28125 0.28125 3.9832 0.28125 8.85938C0.28125 12.7582 2.73516 16.0945 6.24023 17.2688C6.69023 17.3496 6.84844 17.0719 6.84844 16.8434C6.84844 16.6254 6.83789 15.423 6.83789 14.6848C6.83789 14.6848 4.37695 15.2121 3.86016 13.6371C3.86016 13.6371 3.45937 12.6141 2.88281 12.3504C2.88281 12.3504 2.07773 11.7984 2.93906 11.809C2.93906 11.809 3.81445 11.8793 4.29609 12.716C5.06602 14.073 6.35625 13.6828 6.85898 13.4508C6.93984 12.8883 7.16836 12.498 7.42148 12.266C5.45625 12.048 3.47344 11.7633 3.47344 8.38125C3.47344 7.41445 3.74063 6.9293 4.30312 6.31055C4.21172 6.08203 3.91289 5.13984 4.39453 3.92344C5.1293 3.69492 6.82031 4.87266 6.82031 4.87266C7.52344 4.67578 8.2793 4.57383 9.02812 4.57383C9.77695 4.57383 10.5328 4.67578 11.2359 4.87266C11.2359 4.87266 12.927 3.69141 13.6617 3.92344C14.1434 5.14336 13.8445 6.08203 13.7531 6.31055C14.3156 6.93281 14.6602 7.41797 14.6602 8.38125C14.6602 11.7738 12.5895 12.0445 10.6242 12.266C10.9477 12.5437 11.2219 13.0711 11.2219 13.8973C11.2219 15.082 11.2113 16.548 11.2113 16.8363C11.2113 17.0648 11.373 17.3426 11.8195 17.2617C15.3352 16.0945 17.7188 12.7582 17.7188 8.85938C17.7188 3.9832 13.7637 0.28125 8.8875 0.28125ZM3.69844 12.4066C3.65273 12.4418 3.66328 12.5227 3.72305 12.5895C3.7793 12.6457 3.86016 12.6703 3.90586 12.6246C3.95156 12.5895 3.94102 12.5086 3.88125 12.4418C3.825 12.3855 3.74414 12.3609 3.69844 12.4066ZM3.31875 12.1219C3.29414 12.1676 3.3293 12.2238 3.39961 12.259C3.45586 12.2941 3.52617 12.2836 3.55078 12.2344C3.57539 12.1887 3.54023 12.1324 3.46992 12.0973C3.39961 12.0762 3.34336 12.0867 3.31875 12.1219ZM4.45781 13.3734C4.40156 13.4191 4.42266 13.5246 4.50352 13.5914C4.58437 13.6723 4.68633 13.6828 4.73203 13.6266C4.77773 13.5809 4.75664 13.4754 4.68633 13.4086C4.60898 13.3277 4.50352 13.3172 4.45781 13.3734ZM4.05703 12.8566C4.00078 12.8918 4.00078 12.9832 4.05703 13.0641C4.11328 13.1449 4.2082 13.1801 4.25391 13.1449C4.31016 13.0992 4.31016 13.0078 4.25391 12.927C4.20469 12.8461 4.11328 12.8109 4.05703 12.8566Z" fill="#14EA6A"/>
</svg>
